Coordinates
version=1
nRows=11
nColumns=42
inDegrees=yes

Units are S.I. units (second, meters, Newtons, ...)
If the header above contains a line with 'inDegrees', this indicates whether rotational values are in degrees (yes) or radians (no).

endheader
time	pelvis_tilt	pelvis_list	pelvis_rotation	pelvis_tx	pelvis_ty	pelvis_tz	hip_flexion_r	hip_adduction_r	hip_rotation_r	knee_angle_r	knee_angle_r_beta	ankle_angle_r	subtalar_angle_r	mtp_angle_r	hip_flexion_l	hip_adduction_l	hip_rotation_l	knee_angle_l	knee_angle_l_beta	ankle_angle_l	subtalar_angle_l	mtp_angle_l	lumbar_extension	lumbar_bending	lumbar_rotation	sh_tx_r	sh_ty_r	sh_tz_r	sh_plane_elev_r	sh_elev_r	sh_axial_rot_r	elbow_flex_r	pro_sup_r	sh_tx_l	sh_ty_l	sh_tz_l	sh_plane_elev_l	sh_elev_l	sh_axial_rot_l	elbow_flex_l	pro_sup_l
      6.86440680	    -79.82937036	      1.37354650	      1.56163013	     -0.22479956	      0.38143062	     -0.03981893	     15.76638970	      4.02179721	     19.59219662	     13.41011720	      0.23405070	      9.51899424	    -29.63183003	     -7.49999987	     14.49958910	      6.95183754	     12.36743628	      8.35855626	      0.14588433	     18.66570247	    -15.76492608	     -7.49999987	     -2.08695523	     -6.25058414	      2.20953988	     -0.01042862	     -0.00679189	     -0.00724351	     65.05964094	     69.70216185	    -40.54855466	     33.35451645	     58.43114292	     -0.00723755	      0.01250181	     -0.00680536	     81.68504242	     77.57063025	    -24.21325824	     16.15346086	     38.62680575
      6.88135590	    -79.86006853	      1.42450164	      1.40916366	     -0.22628475	      0.38307169	     -0.03535480	     15.84445118	      4.03628784	     19.56528985	     13.22817748	      0.23087525	      9.44261658	    -29.43901244	     -7.49999987	     14.55756572	      6.82368848	     12.25690913	      8.20994247	      0.14329053	     18.93860077	    -15.85722952	     -7.49999987	     -2.18018153	     -6.39829201	      2.33834167	     -0.01021341	     -0.00671369	     -0.00727120	     65.06998158	     69.70828181	    -40.54525891	     33.33015907	     58.43925801	     -0.00705099	      0.01280688	     -0.00681652	     81.59978146	     77.66490807	    -24.22543853	     16.15315178	     38.61903242
      6.89830510	    -79.56171621	      1.55649305	      1.19145986	     -0.22461535	      0.38729951	     -0.03857272	     15.55108517	      3.85458924	     19.55963135	     12.96862835	      0.22634526	      9.04567581	    -28.52483005	     -7.49999987	     14.26348432	      6.85665133	     11.84569348	      7.97361566	      0.13916585	     19.24725627	    -14.77249248	     -7.49999987	     -2.81007604	     -6.46997447	      2.32966112	     -0.01004260	     -0.00680346	     -0.00726233	     65.32385285	     69.97646744	    -41.12680976	     33.40356001	     58.77622849	     -0.00700506	      0.01256295	     -0.00686057	     80.95881937	     77.87854883	    -26.51144714	     17.58912719	     41.54002138
      6.91525420	    -79.56898564	      1.55066961	      0.99959663	     -0.23177785	      0.38689280	     -0.03459228	     15.79562698	      3.99564826	     19.30197269	     12.96934686	      0.22635780	      9.00540410	    -28.39898901	     -7.49999987	     14.32957905	      6.70261225	     11.66313599	      7.84109229	      0.13685288	     19.64930602	    -14.78021227	     -7.49999987	     -2.90947300	     -6.57827747	      2.48772690	     -0.00903440	     -0.00667642	     -0.00730748	     65.32757269	     70.12195556	    -41.11068160	     33.43667571	     58.79639318	     -0.00607793	      0.01331012	     -0.00693596	     80.85429137	     77.99478498	    -26.46655230	     17.61352951	     41.52975985
      6.93220340	    -79.60809236	      1.63376320	      0.96517626	     -0.23327255	      0.38812262	     -0.03547746	     16.03566254	      4.03949513	     19.61962841	     12.95492314	      0.22610606	      9.13828259	    -28.67133057	     -7.49999987	     14.49444010	      6.70820348	     11.34342996	      7.83875804	      0.13681214	     20.12619681	    -14.13515408	     -7.49999987	     -3.32227722	     -6.77407936	      2.58777485	     -0.01107921	     -0.00762533	     -0.00729333	     65.60646823	     71.03497997	    -40.62324931	     32.64816374	     58.91925884	     -0.00682757	      0.01286431	     -0.00686236	     81.01808480	     78.67087944	    -26.04378481	     17.31068456	     41.23244065
      6.94915250	    -79.94955727	      1.74661433	      1.10256939	     -0.23622507	      0.38620242	     -0.03440051	     16.44472288	      3.91002353	     19.68102428	     12.86392487	      0.22451784	      9.92695590	    -28.20466967	     -7.49999987	     14.95121409	      6.77596967	     11.31046539	      7.88171273	      0.13756184	     20.18847404	    -14.20126655	     -7.49999987	     -2.99066029	     -7.00359602	      2.18251215	     -0.00925624	     -0.00693466	     -0.00738483	     65.88084432	     70.86124474	    -41.25063104	     32.96477258	     58.78199457	     -0.00667084	      0.01405465	     -0.00694575	     80.24988248	     78.60201233	    -27.36371308	     18.49884648	     42.97230644
      6.96610170	    -79.87997399	      1.92459531	      0.97860917	     -0.23549161	      0.39182039	     -0.03929675	     16.43102364	      3.54055894	     19.60533478	     12.65584660	      0.22088619	     10.06838511	    -27.93000768	     -7.49999987	     14.92172513	      7.04263260	     11.38759019	      7.66960227	      0.13385981	     19.91391166	    -14.43750184	     -7.49999987	     -3.58410613	     -7.25847580	      2.53012992	     -0.01209956	     -0.00740472	     -0.00729926	     65.80671446	     71.97139413	    -40.28451365	     32.02859139	     58.65357797	     -0.00732989	      0.01380684	     -0.00685854	     81.04144788	     79.47696822	    -25.66265084	     17.12683432	     42.04158844
      6.98305080	    -79.94489739	      2.08767589	      1.07400474	     -0.23735004	      0.39287825	     -0.03899517	     16.69073972	      3.19372857	     19.12828482	     12.66030956	      0.22096409	     11.58588434	    -26.31216232	     -7.49999987	     15.05887018	      7.25095918	     11.34481424	      7.37289970	      0.12868138	     19.79554336	    -14.31679881	     -7.49999987	     -3.76668591	     -7.43678722	      2.33632232	     -0.01057313	     -0.00657023	     -0.00738232	     65.48981278	     71.94755856	    -40.29916258	     32.99327707	     58.61711267	     -0.00704952	      0.01398122	     -0.00695319	     80.35521937	     79.59379799	    -25.99317440	     19.03567381	     42.47539412
      7.00000000	    -80.41171609	      2.20438999	      0.92985610	     -0.24187743	      0.39398821	     -0.03984505	     17.57145071	      3.12735907	     19.90572670	     12.96937530	      0.22635830	     10.83331497	    -27.87082996	     -7.49999987	     15.84125226	      7.38937380	     11.40302971	      7.38680590	      0.12892408	     19.65946509	    -14.86435382	     -7.49999987	     -3.60258688	     -7.50528658	      2.32716696	     -0.01162180	     -0.00694485	     -0.00733319	     65.99500087	     72.65517588	    -40.97838863	     32.04928529	     58.49258164	     -0.00820891	      0.01363505	     -0.00694051	     80.68744809	     80.15987387	    -27.15468705	     18.02618911	     42.29730023
      7.01694920	    -80.48673612	      2.23637545	      0.99332864	     -0.23853047	      0.39616423	     -0.03730757	     17.71972281	      3.12752996	     20.09130616	     12.78162751	      0.22308148	     10.98441616	    -27.86786439	     -7.49999987	     15.99472105	      7.41137022	     11.33730408	      7.14357512	      0.12467891	     19.66768935	    -14.86885464	     -7.49999987	     -3.72053846	     -7.61345376	      2.25368418	     -0.01095949	     -0.00655862	     -0.00737323	     65.93645728	     72.80388411	    -40.95572289	     32.02778784	     58.49389567	     -0.00771991	      0.01475419	     -0.00695517	     80.73454052	     80.30777932	    -27.10985602	     18.02699563	     42.27459460
      7.03389830	    -80.45344882	      2.23615219	      1.01811625	     -0.23719024	      0.39728733	     -0.03756922	     17.76921105	      3.16072308	     20.34463699	     12.79258210	      0.22327268	     11.26975802	    -27.65361330	     -7.49999987	     15.92245356	      7.33014914	     11.07838025	      6.78858686	      0.11848319	     19.70974936	    -14.46598286	     -7.49999987	     -4.16096598	     -7.63820306	      2.22472679	     -0.01227747	     -0.00681835	     -0.00735013	     66.06885636	     73.36917263	    -41.01961783	     31.63754077	     58.50030962	     -0.00911000	      0.01416059	     -0.00694406	     80.85368531	     80.90606293	    -27.44156836	     17.94904923	     42.32361059
